HIERARCHY
ROOT Hips
{
	OFFSET 0.000000 0.000000 0.000000
	CHANNELS 6 Xposition Yposition Zposition Zrotation Yrotation Xrotation 
	JOINT LHipJoint
	{
		OFFSET 0.000000 0.000000 0.000000
		CHANNELS 3 Zrotation Yrotation Xrotation
		JOINT LeftUpLeg
		{
			OFFSET 1.363060 -1.794630 0.839290
			CHANNELS 3 Zrotation Yrotation Xrotation
			JOINT LeftLeg
			{
				OFFSET 2.448110 -6.726130 0.000000
				CHANNELS 3 Zrotation Yrotation Xrotation
				JOINT LeftFoot
				{
					OFFSET 2.562200 -7.039590 0.000000
					CHANNELS 3 Zrotation Yrotation Xrotation
					JOINT LeftToeBase
					{
						OFFSET 0.157640 -0.433110 2.322550
						CHANNELS 3 Zrotation Yrotation Xrotation
						End Site
						{
							OFFSET 0.000000 0.000000 0.000000
						}
					}
				}
			}
		}
	}
	JOINT RHipJoint
	{
		OFFSET 0.000000 0.000000 0.000000
		CHANNELS 3 Zrotation Yrotation Xrotation
		JOINT RightUpLeg
		{
			OFFSET -1.305520 -1.794630 0.839290
			CHANNELS 3 Zrotation Yrotation Xrotation
			JOINT RightLeg
			{
				OFFSET -2.542530 -6.985550 0.000000
				CHANNELS 3 Zrotation Yrotation Xrotation
				JOINT RightFoot
				{
					OFFSET -2.568260 -7.056230 0.000000
					CHANNELS 3 Zrotation Yrotation Xrotation
					JOINT RightToeBase
					{
						OFFSET -0.164730 -0.452590 2.363150
						CHANNELS 3 Zrotation Yrotation Xrotation
						End Site
						{
							OFFSET 0.000000 0.000000 0.000000
						}
					}
				}
			}
		}
	}
}
MOTION
Frames: 23
Frame Time: 0.008333
4.354734 17.187833 -0.141039 -174.669868 -76.387594 -173.303058 -11.516241 2.017337 0.993785 -5.285868 20.021173 -18.038138 -2.749405 -1.202402 2.474743 0.796641 5.508743 -2.414692 0.561400 -0.000000 -41.408900 8.296606 -2.224187 4.753549 9.207870 5.242414 -19.066332 2.808082 0.750585 9.999326 -0.602028 -2.049455 -4.650008 -0.498800 0.000001 -57.027900
4.356563 17.183855 -0.175690 -174.970827 -75.900417 -173.135783 -11.531256 2.011741 0.915022 -5.133980 20.280456 -17.999995 -2.729969 -1.157720 2.935497 0.842914 5.818272 -2.564203 0.565800 -0.000000 -41.432800 8.269764 -2.212018 4.813167 9.222311 5.730704 -19.118525 2.780968 0.693267 10.545419 -0.617346 -2.037597 -4.908849 -0.474800 -0.000000 -56.749001
4.358764 17.179595 -0.210700 -175.249700 -75.414593 -173.004922 -11.545244 2.005736 0.834635 -4.966322 20.501341 -17.957680 -2.702590 -1.105393 3.468511 0.897310 6.185756 -2.709986 0.574099 -0.000000 -41.540200 8.243537 -2.196703 4.867732 9.238303 6.229795 -19.142026 2.751977 0.635282 11.089230 -0.635892 -2.043683 -5.169939 -0.452000 -0.000001 -56.460600
4.361424 17.174951 -0.245867 -175.482157 -74.925374 -172.936207 -11.558917 1.997505 0.748273 -4.775947 20.704176 -17.918951 -2.669457 -1.043990 4.091190 0.956489 6.582621 -2.861040 0.582200 0.000000 -41.740200 8.216260 -2.178243 4.917747 9.264263 6.748162 -19.131423 2.721865 0.576730 11.630085 -0.658515 -2.072442 -5.433903 -0.430600 0.000000 -56.151600
4.364502 17.169986 -0.281554 -175.719022 -74.434413 -172.869491 -11.570171 1.988313 0.667423 -4.574190 20.829353 -17.872933 -2.626092 -0.977535 4.772954 1.025913 7.049524 -3.013566 0.594600 0.000000 -42.013700 8.190493 -2.156222 4.962382 9.287663 7.273663 -19.107227 2.690206 0.516862 12.175064 -0.683021 -2.110800 -5.700764 -0.409300 0.000000 -55.867900
4.368380 17.164618 -0.317415 -175.889444 -73.933778 -172.882980 -11.580919 1.973377 0.579050 -4.339928 20.940818 -17.844937 -2.578904 -0.901134 5.566105 1.096694 7.512217 -3.193070 0.600300 0.000001 -42.348500 8.161874 -2.130530 5.002641 9.331535 7.826938 -19.047344 2.658696 0.456653 12.714382 -0.711973 -2.175162 -5.966999 -0.389400 0.000000 -55.551400
4.373030 17.159003 -0.354097 -176.062787 -73.428734 -172.894707 -11.587946 1.954709 0.498311 -4.090574 20.960183 -17.827382 -2.522290 -0.819185 6.441210 1.176394 8.025248 -3.396769 0.604300 -0.000001 -42.700400 8.134435 -2.100531 5.036903 9.377493 8.387271 -18.978820 2.626599 0.395439 13.255745 -0.742183 -2.246856 -6.232615 -0.369500 -0.000000 -55.251300
4.378782 17.153331 -0.391759 -176.235360 -72.920164 -172.907521 -11.590426 1.930714 0.425794 -3.823330 20.880292 -17.836222 -2.456444 -0.729965 7.424041 1.264694 8.580143 -3.635134 0.603500 -0.000000 -43.033300 8.108163 -2.065640 5.064134 9.428520 8.952449 -18.900544 2.594392 0.333771 13.794084 -0.773354 -2.325805 -6.493711 -0.349700 -0.000001 -54.954901
4.385802 17.147827 -0.430855 -176.442503 -72.414454 -172.879389 -11.586095 1.902281 0.368732 -3.549473 20.658694 -17.883900 -2.378465 -0.633009 8.529295 1.365808 9.203476 -3.904070 0.599900 0.000000 -43.315399 8.086073 -2.025241 5.081629 9.473949 9.504063 -18.823610 2.561715 0.271858 14.328767 -0.803115 -2.399805 -6.747415 -0.329400 -0.000000 -54.674600
4.394393 17.142864 -0.471941 -176.738911 -71.921695 -172.752285 -11.572128 1.871801 0.335399 -3.289017 20.244767 -17.982706 -2.284393 -0.527375 9.773838 1.485434 9.933798 -4.185075 0.598900 -0.000000 -43.536400 8.073381 -1.978681 5.084331 9.494891 10.010674 -18.760108 2.527685 0.209657 14.861191 -0.827599 -2.448149 -6.992343 -0.307500 0.000000 -54.438001
4.405119 17.138637 -0.514674 -177.074553 -71.449026 -172.574476 -11.549529 1.835892 0.321716 -3.030044 19.659549 -18.187906 -2.175242 -0.405074 11.241935 1.620761 10.746004 -4.464896 0.600200 0.000000 -43.730700 8.067002 -1.926032 5.074482 9.507225 10.481293 -18.703029 2.493408 0.149444 15.373678 -0.849191 -2.487951 -7.218419 -0.286500 -0.000000 -54.195700
4.418219 17.135540 -0.559662 -177.557959 -71.013191 -172.236803 -11.514815 1.800578 0.338740 -2.814122 18.835361 -18.507092 -2.044814 -0.265605 12.941434 1.779415 11.701487 -4.681045 0.621701 -0.000000 -43.953800 8.077212 -1.866894 5.042460 9.471425 10.855345 -18.673132 2.456764 0.090132 15.876680 -0.860243 -2.476266 -7.428445 -0.263500 0.000000 -54.018700
4.434177 17.133763 -0.606565 -178.196658 -70.624492 -171.739405 -11.469099 1.765895 0.381310 -2.648374 17.789823 -18.972271 -1.892675 -0.102880 14.929344 1.957555 12.784012 -4.771080 0.679500 0.000000 -44.275800 8.106668 -1.801376 4.982566 9.382009 11.107817 -18.660742 2.417887 0.032315 16.361681 -0.858427 -2.402883 -7.616914 -0.239200 0.000000 -53.915900
4.453041 17.133199 -0.654687 -178.958710 -70.296396 -171.099731 -11.415735 1.729272 0.449342 -2.533648 16.553201 -19.669139 -1.718736 0.090223 17.296394 2.148401 13.958340 -4.662663 0.796200 -0.000000 -44.896600 8.152424 -1.731284 4.902550 9.246075 11.241855 -18.689308 2.377410 -0.022112 16.827629 -0.845951 -2.278589 -7.784865 -0.214800 -0.000000 -53.845300
4.475355 17.133868 -0.703298 -179.878099 -70.033493 -170.308483 -11.357911 1.690702 0.530828 -2.477283 15.169741 -20.586138 -1.522398 0.314560 20.045898 2.340920 15.180026 -4.259377 1.004700 0.000000 -45.804500 8.219199 -1.656196 4.789956 9.052541 11.219772 -18.731107 2.335537 -0.074419 17.270585 -0.818352 -2.080178 -7.929756 -0.189500 0.000000 -53.857000
4.501241 17.135498 -0.751239 179.070809 -69.837671 -169.400193 -11.301260 1.646145 0.613461 -2.470785 13.710048 -21.739594 -1.303374 0.570154 23.191123 2.520331 16.377094 -3.458480 1.342500 -0.000001 -47.184800 8.305159 -1.576618 4.642519 8.810391 11.039530 -18.769777 2.293554 -0.124814 17.687303 -0.776347 -1.810545 -8.052009 -0.164000 -0.000000 -53.943901
4.530768 17.137776 -0.797379 177.913369 -69.706307 -168.409817 -11.250487 1.589891 0.686497 -2.503791 12.240238 -23.127940 -1.062160 0.851596 26.712624 2.672669 17.466198 -2.188558 1.836001 0.000000 -48.969300 8.407433 -1.492611 4.460037 8.529776 10.711160 -18.790607 2.252379 -0.173782 18.076374 -0.722118 -1.479656 -8.153100 -0.139100 -0.000001 -54.094801
4.564042 17.140462 -0.840779 176.671181 -69.631353 -167.373654 -11.208386 1.515494 0.737681 -2.566406 10.822276 -24.718227 -0.800737 1.149191 30.553714 2.787543 18.364092 -0.404583 2.493101 0.000000 -51.045900 8.523579 -1.403427 4.240300 8.219048 10.250313 -18.767160 2.212423 -0.222438 18.435506 -0.658291 -1.100057 -8.234100 -0.115400 0.000000 -54.302500
4.601273 17.143358 -0.880701 175.360994 -69.602153 -166.324564 -11.174737 1.415966 0.755690 -2.651009 9.502562 -26.459598 -0.523604 1.450915 34.635489 2.861479 19.000264 1.901439 3.292700 0.000000 -53.375600 8.651591 -1.307509 3.980776 7.883858 9.679560 -18.669783 2.173301 -0.272286 18.763060 -0.588277 -0.688608 -8.296192 -0.093500 -0.000000 -54.560300
4.642355 17.146334 -0.916859 173.993599 -69.610268 -165.275463 -11.146251 1.285327 0.736244 -2.757744 8.299427 -28.316997 -0.240486 1.745655 38.891949 2.897369 19.308955 4.640100 4.160700 0.000000 -55.494000 8.788972 -1.203959 3.685264 7.524683 9.029859 -18.491540 2.133622 -0.324220 19.062209 -0.516729 -0.268441 -8.342648 -0.074000 -0.000000 -54.850700
4.687289 17.149251 -0.949202 172.570961 -69.648305 -164.231049 -11.118141 1.119578 0.675439 -2.889394 7.219211 -30.256564 0.037338 2.026457 43.262283 2.902600 19.249331 7.681631 4.995800 -0.000000 -57.118900 8.933947 -1.091807 3.357643 7.139574 8.332717 -18.226334 2.091436 -0.379354 19.337286 -0.448347 0.135910 -8.376946 -0.057200 0.000000 -55.161300
4.735857 17.151993 -0.977867 171.096770 -69.712600 -163.188284 -11.085890 0.917927 0.572042 -3.051317 6.257209 -32.261347 0.299522 2.292320 47.705208 2.885585 18.806095 10.845905 5.683399 -0.000000 -57.971800 9.084377 -0.971128 3.005046 6.726317 7.620777 -17.880046 2.044873 -0.438344 19.594871 -0.387826 0.499118 -8.404456 -0.043499 -0.000000 -55.477100
4.787720 17.154381 -1.003219 169.569960 -69.802142 -162.137201 -11.046305 0.682590 0.425417 -3.250286 5.405612 -34.327464 0.540895 2.548046 52.195133 2.853162 17.999466 13.936171 6.129200 0.000000 -57.906400 9.238355 -0.842604 2.635666 6.283826 6.923814 -17.464454 1.992305 -0.501675 19.842347 -0.339282 0.797520 -8.430734 -0.032700 -0.000000 -55.784800
